# xmcd
#
# Track frame offsets: 
#        150
#        10770
#        28010
#        42064
#        56467
#        69512
#        86800
#        104805
#        121912
#        139452
#        154867
#        164117
#        180392
#        198037
#        218209
#        231320
#        250472
#        266692
#        284300
#        299712
#        313680
#
# Disc length: 4442 seconds
#
# Revision: 3
# Processed by: cddbd v1.5.2PL0 Copyright (c) Steve Scherf et al.
# Submitted via: ExactAudioCopy v0.99pb5
#
DISCID=43115815
DTITLE=Various Artist - Hott Country  041
DYEAR=1999
DGENRE=Country
TTITLE0=Dwight Yoakam - Crazy Little Thing Called Love
TTITLE1=Chris Ledoux - Life Is A Highway
TTITLE2=Neal McCoy - The Girls Of Summer
TTITLE3=Redman and Vale - If I Had A Nickel (One Thin Dime)
TTITLE4=Warren Brothers - She Wants To Rock
TTITLE5=Kenny Chesney - You Had Me From Hello
TTITLE6=Claudia Church - Home Is In My Heart
TTITLE7=Billy Ray Cyrus - Give My Heart To You
TTITLE8=Matt King - From Your Knees
TTITLE9=George Jones - Choices
TTITLE10=Tim Wilson - It's A Sorry World
TTITLE11=Susan Ashton - You're Lucky I Love You
TTITLE12=Reba McEntire - One Honest Heart
TTITLE13=Alan Jackson - Little Man
TTITLE14=Roger Springer Band - Aint't Nothing But A Cloud
TTITLE15=Faith Hill - The Secret Of Life
TTITLE16=Chad Brock - Lighting Does The Work
TTITLE17=Paul Brandt - That's The Truth
TTITLE18=Monte Warden - It's Only Love
TTITLE19=Collin Raye - Start Over Georgia
TTITLE20=Trisha Yearwood - I'll Still Love You More
EXTD=
EXTT0=
EXTT1=
EXTT2=
EXTT3=
EXTT4=
EXTT5=
EXTT6=
EXTT7=
EXTT8=
EXTT9=
EXTT10=
EXTT11=
EXTT12=
EXTT13=
EXTT14=
EXTT15=
EXTT16=
EXTT17=
EXTT18=
EXTT19=
EXTT20=
PLAYORDER=
